<svg xmlns="http://www.w3.org/2000/svg" xmlns:xlink="http://www.w3.org/1999/xlink" width="650" height="380" viewBox="0 0 650 380">
  <defs>
    <clipPath id="clip-path">
      <rect id="矩形_2223" data-name="矩形 2223" width="650" height="380" transform="translate(910 1222)" fill="#fd4d60"/>
    </clipPath>
    <clipPath id="clip-path-2">
      <rect id="矩形_3146" data-name="矩形 3146" width="650" height="380" transform="translate(-834.5 -824.121)" fill="none"/>
    </clipPath>
    <linearGradient id="linear-gradient" x1="0.5" y1="1" x2="0.5" gradientUnits="objectBoundingBox">
      <stop offset="0.302" stop-color="#fff"/>
      <stop offset="1" stop-color="#ffd200"/>
    </linearGradient>
  </defs>
  <g id="第二张" transform="translate(-910 -1222)" clip-path="url(#clip-path)">
    <g id="组_1168" data-name="组 1168" transform="translate(1744.5 2046.121)">
      <g id="组_1167" data-name="组 1167" clip-path="url(#clip-path-2)">
        <path id="路径_10709" data-name="路径 10709" d="M0,0H650V380H0Z" transform="translate(-834.5 -824.121)" fill="#fd4d60"/>
        <g id="组_1163" data-name="组 1163">
          <path id="路径_10684" data-name="路径 10684" d="M-173.235-498.128H-602.3a3.658,3.658,0,0,1-3.885-3.379V-770.625A3.658,3.658,0,0,1-602.3-774h429.062a3.659,3.659,0,0,1,3.885,3.379v269.118A3.659,3.659,0,0,1-173.235-498.128Z" fill="rgba(255,255,255,0.75)"/>
          <circle id="椭圆_54" data-name="椭圆 54" cx="9.59" cy="9.59" r="9.59" transform="translate(-588.597 -755.433)" fill="#fd4d60"/>
          <circle id="椭圆_55" data-name="椭圆 55" cx="9.59" cy="9.59" r="9.59" transform="translate(-563.03 -737.913) rotate(-80.783)" fill="#24285b"/>
          <circle id="椭圆_56" data-name="椭圆 56" cx="9.59" cy="9.59" r="9.59" transform="translate(-535.761 -755.433)" fill="#36c622"/>
        </g>
        <g id="组_1164" data-name="组 1164">
          <path id="路径_10685" data-name="路径 10685" d="M-416.047-632.295l-8.074,10.122a53.015,53.015,0,0,0-11.3,38.184l1.556,15.755,23.631-21.465Z" fill="#24285b"/>
          <path id="路径_10686" data-name="路径 10686" d="M-359.352-632.295l8.074,10.122a52.931,52.931,0,0,1,11.3,38.184l-1.536,15.755L-365.142-589.7Z" fill="#24285b"/>
          <path id="路径_10687" data-name="路径 10687" d="M-398.462-586.352s7.365,43.324-4.746,46.967-17.723-15.911-33.714-4.273,4.51,24.458-23.729,20.894-39.189,10.358-32.533,24.636h208.408s10.457-13.254-1.181-22.273a22.076,22.076,0,0,0-17.921-3.938,5.908,5.908,0,0,1-6.81-4.84,5.878,5.878,0,0,1-.082-1.068c.118-4.273-.61-9.118-3.939-12.072-3.938-3.6-12.308.158-18.53,3.939a37.259,37.259,0,0,1-23.632,5.317c-7.227-.867-14.631-3.269-16.64-9.216-4.273-12.584-1.674-44.92-1.674-44.92Z" opacity="0.55" fill="url(#linear-gradient)" style="isolation: isolate"/>
          <path id="路径_10688" data-name="路径 10688" d="M-387.67-722.172s-59.669,32.749-22.548,132.453H-365.1C-327.981-689.423-387.67-722.172-387.67-722.172Z" fill="#fd4d60"/>
          <path id="路径_10689" data-name="路径 10689" d="M-365.1-589.719l-2.009,7.641h-40.941l-2.166-8.547Z" fill="#24285b"/>
          <circle id="椭圆_57" data-name="椭圆 57" cx="15.321" cy="15.321" r="15.321" transform="translate(-402.558 -679.006)" fill="#fff"/>
        </g>
        <g id="组_1165" data-name="组 1165">
          <rect id="矩形_3141" data-name="矩形 3141" width="129.184" height="89.582" rx="3.516" transform="translate(-336.818 -802.814)" fill="#fff"/>
          <rect id="矩形_3142" data-name="矩形 3142" width="14.533" height="18.59" rx="2.707" transform="translate(-306.255 -751.14)" fill="#c1c1c1"/>
          <rect id="矩形_3143" data-name="矩形 3143" width="14.533" height="32.887" rx="2.696" transform="translate(-279.355 -765.437)" fill="#c1c1c1"/>
          <rect id="矩形_3144" data-name="矩形 3144" width="14.533" height="47.479" rx="2.721" transform="translate(-252.455 -780.03)" fill="#c1c1c1"/>
        </g>
        <path id="路径_10690" data-name="路径 10690" d="M-657.909-639.108l-26.145.709-6.829,193.354,26.98,1.274c2.085-7.151,16.272-88.672,36.663-110.209,20.057-21.2,101.954-76.163,71.951-113.275C-569.883-685.331-594.4-616.32-594.4-616.32l-38.613,4.587,2.648-1.376Z" opacity="0.05" style="isolation: isolate"/>
        <path id="路径_10691" data-name="路径 10691" d="M-704.828-674.3l6.668,19.973-15.8,10.034-5.674-34.591Z" fill="#e8b8af"/>
        <path id="路径_10692" data-name="路径 10692" d="M-725.057-698.181a12.407,12.407,0,0,1,16.275-6.556,12.4,12.4,0,0,1,4.371,3.126c6.7,7.181,14.811,18.594,5.642,24.781-14.009,9.618-26.9-8.239-26.9-8.239A22.446,22.446,0,0,1-725.057-698.181Z" fill="#edc4bc"/>
        <path id="路径_10693" data-name="路径 10693" d="M-711.493-684.206s-2.356-1.959-3.4.834,3.065,4.17,4.295,2.711S-711.493-684.206-711.493-684.206Z" fill="#f4a28c"/>
        <path id="路径_10694" data-name="路径 10694" d="M-732.134-650.471s-42.24,25.478-47.807,85.482a20.849,20.849,0,0,0,15.783,22.246l49.517,11.947Z" fill="#fe7180"/>
        <path id="路径_10695" data-name="路径 10695" d="M-732.134-650.471s-42.24,25.478-47.807,85.482a20.849,20.849,0,0,0,15.783,22.246l49.517,11.947Z" fill="#fff" opacity="0.2" style="isolation: isolate"/>
        <rect id="矩形_3145" data-name="矩形 3145" width="71.43" height="46.703" transform="translate(-779.304 -547.907) rotate(-24.68)" fill="#ffd200"/>
        <path id="路径_10696" data-name="路径 10696" d="M-712.81-691.1s7.437,21.351-5.547,20-5.9-10.515-12.342-20-3.206-16.03,6.8-24.269c4.52-3.815,7.534-5.61,9.361-7.63a6.99,6.99,0,0,1,9.852-.8,6.989,6.989,0,0,1,1.85,2.464C-699.474-713.121-699.442-702.156-712.81-691.1Z" fill="#24285b"/>
        <path id="路径_10697" data-name="路径 10697" d="M-741.912-637.962A33.963,33.963,0,0,1-720.6-656.58c18.076-5.421,52.374-16.8,62.548,0,13.865,23.122-7.485,113.921-7.485,113.921l-60.734,4.774S-759.655-598.118-741.912-637.962Z" fill="#ef6f81"/>
        <path id="路径_10698" data-name="路径 10698" d="M-665.582-542.617l-7.985,104.351h-12.614l-11.28-81.083-27.9-18.556Z" fill="#24285b"/>
        <path id="路径_10699" data-name="路径 10699" d="M-725.358-537.906l-17.409,99.639h13.531l29.21-82.772Z" fill="#191e44"/>
        <path id="路径_10700" data-name="路径 10700" d="M-715.35-658.206s-28.4,91.445,53.583,97.491l-3.815,18.1-60.693,4.732a157.525,157.525,0,0,1-20.474-80.749s.521-23.31,16.93-33.63A37.146,37.146,0,0,1-715.35-658.206Z" opacity="0.08" style="isolation: isolate"/>
        <path id="路径_10701" data-name="路径 10701" d="M-740.307-438.266l-8.339,6.254a1.856,1.856,0,0,0-.362,2.6,1.853,1.853,0,0,0,1.446.736h14.073a1.856,1.856,0,0,0,1.856-1.834v-7.673Z" fill="#fd4d60"/>
        <path id="路径_10702" data-name="路径 10702" d="M-673.922-438.266l7.9,6.254a1.858,1.858,0,0,1,.362,2.6,1.856,1.856,0,0,1-1.509.736H-677.2a5.337,5.337,0,0,1-5.337-5.337v-4.17Z" fill="#fd4d60"/>
        <path id="路径_10703" data-name="路径 10703" d="M-549.785-665.941l-9.007-2.648-40.01,34.8h0a22.12,22.12,0,0,1-21.767,4.17,49.479,49.479,0,0,1-26.166-20.849c-14.344-23.268-38.717-14.866-38.717-14.866s-18.368,18.1,18.014,49.142c21.725,18.535,43.971,19.7,58.378,17.639a49.89,49.89,0,0,1,5.3-.355,13.7,13.7,0,0,0,4.941-1.1,54.732,54.732,0,0,0,5.65-2.814h0C-578.411-611.358-562.5-629.413-549.785-665.941Z" fill="#fe7180"/>
        <path id="路径_10704" data-name="路径 10704" d="M-558.792-668.589s5.066-14.6,9.09-15.617,0,7.8,0,7.8,11.051,5.421,0,10.425Z" fill="#ffe0de"/>
        <g id="组_1166" data-name="组 1166">
          <path id="路径_10705" data-name="路径 10705" d="M-565.36-458.163s14.095-3.787,17.212-16.78c0,0-21.791-4.507-22.51,18Z" fill="#ffd200" opacity="0.56"/>
          <path id="路径_10706" data-name="路径 10706" d="M-567.182-459.529s9.9-15.486,1.318-30.061a25.028,25.028,0,0,0-9.349,30.061Z" fill="#ffd200" opacity="0.73"/>
          <path id="路径_10707" data-name="路径 10707" d="M-569.579-459.529s-5.131-16.421-20.808-19.609c0,0-3,10.643,10.068,19.609Z" fill="#ffd200"/>
          <path id="路径_10708" data-name="路径 10708" d="M-559.391-459.841l-2.949,19.489H-580.3l-2.565-19.489Z" fill="#24285b"/>
        </g>
      </g>
    </g>
  </g>
</svg>
