<!--<svg xmlns="http://www.w3.org/2000/svg" xmlns:xlink="http://www.w3.org/1999/xlink" width="32" height="32" viewBox="0 0 32 32">
  <defs>
    <clipPath id="clip-path">
      <rect id="矩形_2548" data-name="矩形 2548" width="32" height="32" transform="translate(6848 11598)" fill="#fff" stroke="#707070" stroke-width="1"/>
    </clipPath>
    <clipPath id="clip-path-2">
      <rect id="矩形_2547" data-name="矩形 2547" width="32" height="29.211" transform="translate(0 0)" fill="#1953ff"/>
    </clipPath>
  </defs>
  <g id="logo-agpay" transform="translate(-6848 -11598)" clip-path="url(#clip-path)">
    <g id="组_1000" data-name="组 1000" transform="translate(3462.959 9987.395)">
      <g id="组_999" data-name="组 999" transform="translate(3385.041 1612)" clip-path="url(#clip-path-2)">
        <path id="路径_4157" data-name="路径 4157" d="M3398.508,1679.5h0l-4.173,3.659a2.08,2.08,0,0,0,1.371,3.644h7.49a.729.729,0,0,0,.553-1.2Z" transform="translate(-3390.837 -1657.592)" fill="#1953ff" opacity="0.5"/>
        <path id="路径_4158" data-name="路径 4158" d="M3387.958,1615.772l-2.874,20.448a4.382,4.382,0,0,0,4.339,4.991h1.628a.73.73,0,0,0,.723-.628l.762-5.418a1.459,1.459,0,0,1,1.445-1.256h4.765a1.46,1.46,0,0,0,1.446-1.256l.673-4.789a1.461,1.461,0,0,1,1.446-1.257h4.353a1.461,1.461,0,0,1,1.446,1.664l-.792,5.639-.91,6.473a.729.729,0,0,0,.722.83h2.655a4.382,4.382,0,0,0,4.339-3.772l2.874-20.448a4.381,4.381,0,0,0-4.338-4.991H3392.3A4.382,4.382,0,0,0,3387.958,1615.772Zm19.628,7.182h-4.351a1.462,1.462,0,0,1-1.447-1.665l.615-4.379a1.462,1.462,0,0,1,1.448-1.258h4.351a1.462,1.462,0,0,1,1.448,1.665l-.615,4.379A1.462,1.462,0,0,1,3407.586,1622.954Z" transform="translate(-3385.041 -1612)" fill="#1953ff"/>
      </g>
    </g>
  </g>
</svg>-->

<svg xmlns="http://www.w3.org/2000/svg" width="256" height="256" viewBox="0 0 100 100">
  <rect width="100" height="100" rx="20" fill="#1953ff"/>
  <path d="M57.58 64.10L57.58 64.10Q55.77 65.15 53.41 65.75Q51.05 66.35 48.20 66.35L48.20 66.35Q44.83 66.35 42.01 65.38Q39.20 64.40 37.17 62.49Q35.15 60.57 34.02 57.84Q32.90 55.10 32.90 51.57L32.90 51.57Q32.90 47.52 34.29 44.11Q35.67 40.70 38.15 38.30Q40.63 35.90 44.11 34.55Q47.60 33.20 51.88 33.20L51.88 33.20Q56.22 33.20 59.22 34.25Q62.22 35.30 64.33 36.72L64.33 36.72Q67.25 38.75 67.25 41.75L67.25 41.75Q67.25 42.13 67.25 42.50Q67.25 42.88 67.17 43.25L67.17 43.25L65.60 56.75Q65.90 56.90 66.50 56.97Q67.10 57.05 67.47 57.05L67.47 57.05Q70.85 57.05 72.80 53.86Q74.75 50.67 74.75 45.57L74.75 45.57Q74.75 41.30 73.02 37.74Q71.30 34.17 68.26 31.62Q65.22 29.07 60.99 27.65Q56.75 26.22 51.72 26.22L51.72 26.22Q45.88 26.22 41 28.10Q36.13 29.97 32.64 33.31Q29.15 36.65 27.24 41.19Q25.32 45.72 25.32 51.05L25.32 51.05Q25.32 56.22 27.01 60.35Q28.70 64.47 31.70 67.40Q34.70 70.32 38.79 71.86Q42.88 73.40 47.75 73.40L47.75 73.40Q51.13 73.40 53.26 73.10Q55.40 72.80 57.05 72.57L57.05 72.57Q57.58 73.40 57.99 74.60Q58.40 75.80 58.40 76.85L58.40 76.85Q58.40 78.42 57.88 79.63Q57.35 80.82 56.04 81.65Q54.72 82.47 52.47 82.92Q50.22 83.38 46.85 83.38L46.85 83.38Q41.08 83.38 35.11 81.57Q29.15 79.77 24.27 75.91Q19.40 72.05 16.32 65.90Q13.25 59.75 13.25 51.05L13.25 51.05Q13.25 43.10 16.21 36.69Q19.17 30.27 24.35 25.85Q29.52 21.42 36.54 19.02Q43.55 16.62 51.65 16.62L51.65 16.62Q59.38 16.62 65.83 18.69Q72.27 20.75 76.92 24.50Q81.58 28.25 84.16 33.65Q86.75 39.05 86.75 45.65L86.75 45.65Q86.75 55.70 81.72 61.21Q76.70 66.72 67.47 66.72L67.47 66.72Q65.22 66.72 62.49 66.09Q59.75 65.45 57.58 64.10ZM45.58 51.50L45.58 51.50Q45.58 54.50 47.04 55.62Q48.50 56.75 50.38 56.75L50.38 56.75Q52.55 56.75 54.13 55.62L54.13 55.62L55.25 43.92Q54.65 43.55 53.86 43.36Q53.08 43.17 51.80 43.17L51.80 43.17Q49.17 43.17 47.38 45.31Q45.58 47.45 45.58 51.50Z" fill="#fff"/>
</svg>
