<!--<svg xmlns="http://www.w3.org/2000/svg" xmlns:xlink="http://www.w3.org/1999/xlink" width="62.667" height="16" viewBox="0 0 62.667 16"><defs><style>.a{fill:#262626;}.b{clip-path:url(#a);}</style><clipPath id="a"><rect class="a" width="62.667" height="16"/></clipPath></defs><g transform="translate(-686.73 -2076)"><g class="b" transform="translate(686.73 2076)"><path class="a" d="M930.451,2092.935a2.5,2.5,0,0,0-2.543-1.935h-5.479l-.225,1.6h5.367a1.366,1.366,0,0,1,1.082.476,1.014,1.014,0,0,1-.781,1.657h-3.554a3.383,3.383,0,0,0-3.243,2.844l-.175,1.245a2.414,2.414,0,0,0,2.443,2.845h2.488a3.952,3.952,0,0,0,2.037-.588l-.082.588h1.6l.5-3.556.474-3.378.125-.889h0A2.585,2.585,0,0,0,930.451,2092.935Zm-1.915,3.4-.1.711-.15,1.067a2.329,2.329,0,0,1-2.229,1.956h-2.488a1.057,1.057,0,0,1-1.069-1.244l.175-1.245a1.482,1.482,0,0,1,1.419-1.244h3.554a2.665,2.665,0,0,0,.911-.163Z" transform="translate(-879.269 -2088.333)"/><path class="a" d="M802.041,2091h-3.2a3.383,3.383,0,0,0-3.242,2.844l-.237,1.689-.225,1.6-.237,1.689a2.414,2.414,0,0,0,2.443,2.845h3.2a3.383,3.383,0,0,0,3.242-2.845l.013-.089h-1.6l-.013.089a1.482,1.482,0,0,1-1.418,1.244h-3.2a1.057,1.057,0,0,1-1.069-1.244l.237-1.689h7.285l.225-1.6.237-1.689A2.414,2.414,0,0,0,802.041,2091Zm-5.079,4.533.237-1.689a1.482,1.482,0,0,1,1.419-1.244h3.2a1.057,1.057,0,0,1,1.069,1.244l-.237,1.689Z" transform="translate(-775.657 -2088.333)"/><path class="a" d="M740.041,2091h-3.2a3.383,3.383,0,0,0-3.242,2.844l-.237,1.689-.225,1.6-.237,1.689a2.415,2.415,0,0,0,2.444,2.845h3.2a3.383,3.383,0,0,0,3.242-2.845l.013-.089h-1.6l-.013.089a1.482,1.482,0,0,1-1.418,1.244h-3.2a1.057,1.057,0,0,1-1.069-1.244l.237-1.689h7.285l.225-1.6.237-1.689A2.414,2.414,0,0,0,740.041,2091Zm-5.079,4.533.237-1.689a1.482,1.482,0,0,1,1.418-1.244h3.2a1.057,1.057,0,0,1,1.069,1.244l-.237,1.689Z" transform="translate(-724.674 -2088.333)"/><path class="a" d="M693.933,2076H690.38l-.25,1.778h1.777l-.849,6.044-.325,2.311a1.694,1.694,0,0,1-1.621,1.423H686.98l-.25,1.777h2.132a3.806,3.806,0,0,0,3.648-3.2l1.174-8.355h0Z" transform="translate(-686.73 -2076)"/><path class="a" d="M990.5,2091l-.225,1.6-.325,2.311-.474,3.377-.075.533a1.482,1.482,0,0,1-1.418,1.244h-3.2a1.057,1.057,0,0,1-1.069-1.244l.549-3.911.325-2.311.225-1.6h-1.6l-1.1,7.822a2.414,2.414,0,0,0,2.443,2.845h3.2a3.094,3.094,0,0,0,1.284-.29l-.041.29a1.268,1.268,0,0,1-1.216,1.066H982.1l-.225,1.6h5.686a3.171,3.171,0,0,0,3.04-2.666l.4-2.845.075-.533L992.1,2091Z" transform="translate(-929.43 -2088.333)"/><path class="a" d="M862.644,2091h-3.2a3.094,3.094,0,0,0-1.285.29l.041-.29h-1.6l-.4,2.844-.7,4.978-.774,5.511h1.6l.415-2.956a2.574,2.574,0,0,0,1.2.29h3.2a3.383,3.383,0,0,0,3.242-2.845l.7-4.978A2.414,2.414,0,0,0,862.644,2091Zm.145,7.822a1.482,1.482,0,0,1-1.419,1.244h-3.2a1.057,1.057,0,0,1-1.069-1.244l.7-4.978a1.482,1.482,0,0,1,1.418-1.244h3.2a1.057,1.057,0,0,1,1.069,1.244Z" transform="translate(-824.879 -2088.333)"/></g></g></svg>-->

<svg xmlns="http://www.w3.org/2000/svg" width="254" height="68" viewBox="0 0 254 68">
    <path fill="#0b0b15" d="M24 42.30L24 42.30Q28.20 42.30 30.95 41.45Q33.70 40.60 34.90 39.80L34.90 39.80L34.90 25.30L22.50 26.60Q17.30 27.10 14.80 28.95Q12.30 30.80 12.30 34.40L12.30 34.40Q12.30 38.20 15.20 40.25Q18.10 42.30 24 42.30ZM23.90 0L23.90 0Q32.60 0 37.70 3.90Q42.80 7.80 42.80 16.20L42.80 16.20L42.80 39.90Q42.80 42.10 41.95 43.25Q41.10 44.40 39.40 45.40L39.40 45.40Q37 46.80 33.05 47.85Q29.10 48.90 24 48.90L24 48.90Q14.60 48.90 9.45 45.20Q4.30 41.50 4.30 34.50L4.30 34.50Q4.30 27.90 8.60 24.55Q12.90 21.20 20.70 20.40L20.70 20.40L34.90 19L34.90 16.20Q34.90 11.20 31.90 8.90Q28.90 6.60 23.80 6.60L23.80 6.60Q19.60 6.60 15.90 7.80Q12.20 9 9.30 10.50L9.30 10.50Q8.50 9.80 7.85 8.90Q7.20 8 7.20 6.90L7.20 6.90Q7.20 5.50 7.90 4.60Q8.60 3.70 10.10 2.90L10.10 2.90Q12.80 1.50 16.30 0.75Q19.80 0 23.90 0ZM88.30 49L88.30 42.70Q86.60 44.10 83.65 45.10Q80.70 46.10 76.60 46.10L76.60 46.10Q72.20 46.10 68.30 44.85Q64.40 43.60 61.45 40.85Q58.50 38.10 56.75 33.70Q55.00 29.30 55.00 23L55.00 23Q55.00 17.30 56.70 13Q58.40 8.70 61.45 5.80Q64.50 2.90 68.70 1.45Q72.90 0 78 0L78 0Q82.60 0 86.45 1.15Q90.30 2.30 92.90 4L92.90 4Q94.40 5 95.35 6.25Q96.30 7.50 96.30 9.30L96.30 9.30L96.30 49.50Q96.30 54.50 94.65 57.95Q93 61.40 90.05 63.55Q87.10 65.70 83.10 66.70Q79.10 67.70 74.50 67.70L74.50 67.70Q69.40 67.70 65.85 66.65Q62.30 65.60 61.00 64.80L61.00 64.80Q58.00 63.10 58.00 60.50L58.00 60.50Q58.00 59.10 58.65 58.15Q59.30 57.20 60.30 56.70L60.30 56.70Q62.40 58.30 66.20 59.65Q70 61 74.50 61L74.50 61Q81.20 61 84.75 58.15Q88.30 55.30 88.30 49L88.30 49ZM77.50 39.50L77.50 39.50Q81.50 39.50 84.05 38.25Q86.60 37 88.30 35.40L88.30 35.40L88.30 9.40Q86.60 8.30 84.05 7.45Q81.50 6.60 78 6.60L78 6.60Q71.20 6.60 67.15 10.70Q63.10 14.80 63.10 22.90L63.10 22.90Q63.10 27.40 64.20 30.55Q65.30 33.70 67.25 35.70Q69.20 37.70 71.85 38.60Q74.50 39.50 77.50 39.50ZM130.80 48.80L130.80 48.80Q127.30 48.80 124.20 48Q121.10 47.20 119.10 46.10L119.10 46.10L119.10 65.50Q118.60 65.70 117.60 65.95Q116.60 66.20 115.40 66.20L115.40 66.20Q111.10 66.20 111.10 62.50L111.10 62.50L111.10 9.70Q111.10 7.70 111.80 6.50Q112.50 5.30 114.70 4L114.70 4Q117.40 2.50 121.15 1.25Q124.90 0 129.70 0L129.70 0Q134.60 0 138.95 1.40Q143.30 2.80 146.45 5.75Q149.60 8.70 151.45 13.30Q153.30 17.90 153.30 24.30L153.30 24.30Q153.30 30.50 151.65 35.10Q150 39.70 147 42.75Q144 45.80 139.85 47.30Q135.70 48.80 130.80 48.80ZM129.70 42.20L129.70 42.20Q136.70 42.20 140.95 37.95Q145.20 33.70 145.20 24.30L145.20 24.30Q145.20 19.40 143.95 16Q142.70 12.60 140.55 10.50Q138.40 8.40 135.60 7.50Q132.80 6.60 129.70 6.60L129.70 6.60Q126.10 6.60 123.60 7.50Q121.10 8.40 119.10 9.50L119.10 9.50L119.10 39Q121.00 40.40 123.60 41.30Q126.20 42.20 129.70 42.20ZM182.20 42.30L182.20 42.30Q186.40 42.30 189.15 41.45Q191.90 40.60 193.10 39.80L193.10 39.80L193.10 25.30L180.70 26.60Q175.50 27.10 173.00 28.95Q170.50 30.80 170.50 34.40L170.50 34.40Q170.50 38.20 173.40 40.25Q176.30 42.30 182.20 42.30ZM182.10 0L182.10 0Q190.80 0 195.90 3.90Q201.00 7.80 201.00 16.20L201.00 16.20L201.00 39.90Q201.00 42.10 200.15 43.25Q199.30 44.40 197.60 45.40L197.60 45.40Q195.20 46.80 191.25 47.85Q187.30 48.90 182.20 48.90L182.20 48.90Q172.80 48.90 167.65 45.20Q162.50 41.50 162.50 34.50L162.50 34.50Q162.50 27.90 166.80 24.55Q171.10 21.20 178.90 20.40L178.90 20.40L193.10 19L193.10 16.20Q193.10 11.20 190.10 8.90Q187.10 6.60 182.00 6.60L182.00 6.60Q177.80 6.60 174.10 7.80Q170.40 9 167.50 10.50L167.50 10.50Q166.70 9.80 166.05 8.90Q165.40 8 165.40 6.90L165.40 6.90Q165.40 5.50 166.10 4.60Q166.80 3.70 168.30 2.90L168.30 2.90Q171.00 1.50 174.50 0.75Q178.00 0 182.10 0ZM225.00 37.20L225.00 37.20Q223.70 34.80 222.00 31.10Q220.30 27.40 218.45 22.80Q216.60 18.20 214.70 13.05Q212.80 7.90 211.10 2.60L211.10 2.60Q211.80 1.60 212.95 1Q214.10 0.40 215.40 0.40L215.40 0.40Q217.10 0.40 218.15 1.30Q219.20 2.20 220.00 4.30L220.00 4.30Q223.00 12.80 226.25 21Q229.50 29.20 233.60 38.20L233.60 38.20L234.00 38.20Q235.60 35.10 237.30 30.65Q239.00 26.20 240.65 21.20Q242.30 16.20 243.75 11.05Q245.20 5.90 246.30 1.20L246.30 1.20Q247.00 0.90 247.80 0.65Q248.60 0.40 249.70 0.40L249.70 0.40Q251.40 0.40 252.50 1.25Q253.60 2.10 253.60 3.80L253.60 3.80Q253.60 5.80 252.20 11.10Q250.80 16.40 248.55 23Q246.30 29.60 243.40 36.55Q240.50 43.50 237.50 48.90L237.50 48.90Q232.80 57.40 229.05 61.95Q225.30 66.50 222.10 66.50L222.10 66.50Q219.80 66.50 218.55 65.30Q217.30 64.10 217.00 62.50L217.00 62.50Q218.60 61.10 220.60 58.90Q222.60 56.70 224.60 54.15Q226.60 51.60 228.40 48.90Q230.20 46.20 231.40 43.70L231.40 43.70Q229.70 43.20 228.25 41.95Q226.80 40.70 225.00 37.20Z"></path>
</svg>
