<svg viewBox="86 0 400 129" version="1.1" xmlns="http://www.w3.org/2000/svg" width="400" height="129">
    <title>LOGO</title>
    <defs>
        <polygon points="0.000124238411 0.035957971 115.424441 0.035957971 115.424441 106.565217 0.000124238411 106.565217"/>
        <polygon points="0.513353113 0.0575202899 13.6662252 0.0575202899 13.6662252 6.28940435 0.513353113 6.28940435"/>
        <polygon points="0 0.0575202899 93.1787458 0.0575202899 93.1787458 93.4772014 0 93.4772014"/>
    </defs>
    <g>
        <g transform="translate(108.708609, 22.377449)">
            <path d="M82.0428223,62.1067696 C70.6756289,62.1067696 62.6175256,53.5890304 62.6175256,36.9897841 C62.6175256,21.4001029 69.8127931,12.7390304 81.8987057,12.7390304 C94.2728514,12.7390304 101.467498,21.8332188 101.467498,37.1343638 C101.467498,53.1559145 93.553511,62.1067696 82.0428223,62.1067696 L82.0428223,62.1067696 Z M46.6932673,45.7443348 C46.2689931,55.6798275 37.9207931,63.3456681 26.1765362,63.3456681 C18.1115997,63.3456681 14.1496368,59.6545232 14.1496368,52.6984942 C14.1496368,44.0399145 20.09196,41.6275522 31.270311,39.7822913 C38.7693415,38.6462188 44.7122858,38.077871 46.8348991,35.6648855 L46.6932673,45.7443348 Z M101.035769,1.91237826 L101.035769,14.7594072 C96.7184845,4.07733478 88.0857785,0.035957971 78.733111,0.035957971 C70.0674819,0.035957971 62.3299136,3.50774058 56.7422911,9.87547971 C52.4840196,3.47221884 44.7017256,0.035957971 31.9778487,0.035957971 C10.1876739,0.035957971 2.54701166,10.1135377 2.26374808,24.5939435 L15.4230805,24.5939435 C16.1306183,16.3597551 20.5168554,11.1081464 31.4119428,11.1081464 C41.5994925,11.1081464 46.5516355,15.5091029 46.5516355,23.0316101 C45.9857295,28.1411319 41.1745971,28.8515667 31.1293004,30.271813 C14.4329004,32.5427116 0.000124238411,34.812987 0.000124238411,53.1247551 C0.000124238411,66.0422043 7.21589113,73.5653348 22.7811004,73.5653348 C35.5155375,73.5653348 44.1563189,68.455813 47.8356395,62.2095957 C47.8356395,63.9663638 47.8257004,71.7206971 47.8257004,71.7206971 L60.9844117,71.7206971 L60.9844117,68.4689 C65.5414766,71.6627406 71.2930938,73.509871 78.3013825,73.509871 C88.6616236,73.509871 97.8701746,69.467871 101.035769,59.362871 L101.035769,74.8079725 C101.035769,86.9333493 91.8265971,94.1511174 80.1717918,94.1511174 C69.0928315,94.1511174 60.9844117,87.8002043 60.9844117,76.8295957 L47.8257004,76.8295957 C47.8257004,95.161929 61.8988064,106.565654 81.0352487,106.565654 C100.316429,106.565654 115.424441,95.0179725 115.424441,73.6538275 L115.424441,1.91237826 L101.035769,1.91237826 Z" fill="#fbb615"/>
        </g>
        <path d="M271.818175,42.7165739 C281.079527,42.7165739 285.710514,37.7902696 285.710514,30.4690522 C285.710514,23.5697333 281.079527,18.643429 271.818175,18.643429 L254.698122,18.643429 L254.698122,42.7165739 L271.818175,42.7165739 Z M232.947082,92.0693565 L232.947082,2.65615362 C232.947082,1.53316812 233.854022,0.623313043 234.972789,0.623313043 L274.203552,0.623313043 C293.007657,0.623313043 304.795397,12.4489362 304.795397,30.6092696 C304.795397,48.9110667 293.007657,60.1733275 274.203552,60.1733275 L254.698122,60.1733275 L254.698122,92.0693565 C254.698122,93.1917188 253.791181,94.1015739 252.672414,94.1015739 L234.972789,94.1015739 C233.854022,94.1015739 232.947082,93.1917188 232.947082,92.0693565 L232.947082,92.0693565 Z" fill="#161b1d"/>
        <path d="M339.835971,23.8517261 L329.451504,57.7799725 L349.518492,57.7799725 L339.835971,23.8517261 Z M360.609255,92.621813 L355.83353,75.6592478 L323.979423,75.6592478 L318.402361,92.7028275 C318.129657,93.5372768 317.353167,94.1018855 316.477286,94.1018855 L297.780027,94.1018855 C296.386693,94.1018855 295.408937,92.7227696 295.866755,91.4016101 L326.873557,1.98778406 C327.15682,1.17078406 327.924614,0.623624638 328.786828,0.623624638 L351.161545,0.623624638 C352.026244,0.623624638 352.79528,1.17327681 353.07668,1.99339275 L383.815126,91.4065957 C384.268596,92.7265087 383.291461,94.1018855 381.899991,94.1018855 L362.558555,94.1018855 C361.652236,94.1018855 360.855868,93.4973928 360.609255,92.621813 L360.609255,92.621813 Z" fill="#161b1d"/>
        <path d="M399.456494,92.0695435 L399.456494,59.4699348 L369.358496,3.62228261 C368.628596,2.2680942 369.605731,0.6235 371.140696,0.6235 L391.734455,0.6235 C392.509703,0.6235 393.217241,1.06721014 393.55579,1.76705072 L410.682676,37.0862536 L426.147874,1.83684783 C426.471515,1.09899275 427.198931,0.6235 428.002132,0.6235 L448.335612,0.6235 C449.852563,0.6235 450.831561,2.23444203 450.136447,3.58738406 L421.207533,59.8912101 L421.207533,92.0695435 C421.207533,93.1919058 420.300593,94.1017609 419.181826,94.1017609 L401.482201,94.1017609 C400.363434,94.1017609 399.456494,93.1919058 399.456494,92.0695435" fill="#161b1d"/>
        <g transform="translate(455.333775, 0.565855)">
            <path d="M7.06817166,0.0575202899 L8.24905775,0.0575202899 C8.31055576,0.0575202899 8.36584185,0.0942884058 8.39068954,0.149752174 L10.3083094,4.49275217 L12.2265505,0.149752174 C12.2513981,0.0942884058 12.3066842,0.0575202899 12.3681823,0.0575202899 L13.5117968,0.0575202899 C13.5969001,0.0575202899 13.6664736,0.126694203 13.6664736,0.212694203 L13.6664736,6.13423043 C13.6664736,6.22023043 13.5969001,6.28940435 13.5117968,6.28940435 L12.6272193,6.28940435 C12.542116,6.28940435 12.4725425,6.22023043 12.4725425,6.13423043 L12.4725425,2.56523043 C12.4725425,2.39696957 12.4911783,1.96634638 12.4911783,1.94765072 C12.4725425,1.98566522 12.3607279,2.43373768 12.2855637,2.56523043 L10.7220233,6.19592609 C10.6971756,6.25263623 10.6412683,6.28940435 10.5797703,6.28940435 L9.96292662,6.28940435 C9.90080742,6.28940435 9.84490013,6.25201304 9.82067364,6.1953029 L8.27514781,2.56523043 C8.20060477,2.41566522 8.07015444,2.00373768 8.05151868,1.94765072 C8.05151868,1.96634638 8.07015444,2.39696957 8.07015444,2.56523043 L8.07015444,6.13423043 C8.07015444,6.22023043 8.00058093,6.28940435 7.91485642,6.28940435 L7.06817166,6.28940435 C6.98244715,6.28940435 6.91287364,6.22023043 6.91287364,6.13423043 L6.91287364,0.212694203 C6.91287364,0.126694203 6.98244715,0.0575202899 7.06817166,0.0575202899 L7.06817166,0.0575202899 Z M2.58440742,1.10572319 L0.668029934,1.10572319 C0.582926623,1.10572319 0.513353113,1.03592609 0.513353113,0.950549275 L0.513353113,0.212694203 C0.513353113,0.126694203 0.582926623,0.0575202899 0.668029934,0.0575202899 L5.86181669,0.0575202899 C5.94692,0.0575202899 6.01649351,0.126694203 6.01649351,0.212694203 L6.01649351,0.950549275 C6.01649351,1.03592609 5.94692,1.10572319 5.86181669,1.10572319 L3.92742464,1.10572319 L3.92742464,6.13423043 C3.92742464,6.22023043 3.85785113,6.28940435 3.77212662,6.28940435 L2.73908424,6.28940435 C2.65335974,6.28940435 2.58440742,6.22023043 2.58440742,6.13423043 L2.58440742,1.10572319 Z" fill="#161b1d"/>
        </g>
    </g>
</svg>
