<?xml version="1.0" standalone="no"?><!DOCTYPE svg PUBLIC "-//W3C//DTD SVG 1.1//EN" "http://www.w3.org/Graphics/SVG/1.1/DTD/svg11.dtd"><svg t="1661927062427" class="icon" viewBox="0 0 1024 1024" version="1.1" xmlns="http://www.w3.org/2000/svg" p-id="2538" xmlns:xlink="http://www.w3.org/1999/xlink" width="128" height="128"><path d="M512 1024a512 512 0 1 1 0-1024 512 512 0 0 1 0 1024z m-71.318588-361.411765a29.334588 29.334588 0 0 0 20.48-8.252235L774.625882 349.364706a27.708235 27.708235 0 0 0 0-39.936 29.575529 29.575529 0 0 0-41.08047 0l-292.74353 284.912941L290.454588 448.150588a29.575529 29.575529 0 0 0-41.08047 0 27.708235 27.708235 0 0 0 0 39.996236l170.706823 166.128941a29.274353 29.274353 0 0 0 20.540235 8.252235z" fill="#33A954" p-id="2539"></path></svg>