<svg viewBox="0 0 1024 1024" version="1.1" xmlns="http://www.w3.org/2000/svg" width="28" height="28">
  <path d="M353.5 317.5h331M684.5 340h-331c-12.4 0-22.5-10.1-22.5-22.5s10.1-22.5 22.5-22.5h331c12.4 0 22.5 10.1 22.5 22.5S696.9 340 684.5 340zM353.5 498.5h331M684.5 521h-331c-12.4 0-22.5-10.1-22.5-22.5s10.1-22.5 22.5-22.5h331c12.4 0 22.5 10.1 22.5 22.5S696.9 521 684.5 521z" fill="#FFFFFF"/>
  <path d="M353.5 679.5h164M517.5 702h-164c-12.4 0-22.5-10.1-22.5-22.5s10.1-22.5 22.5-22.5h164c12.4 0 22.5 10.1 22.5 22.5S529.9 702 517.5 702z" fill="#FFFFFF"/>
  <path d="M512 0C229.2 0 0 229.2 0 512c0 22.7 1.5 45.1 4.4 67.1C37.2 830.2 252 1024 512 1024s474.8-193.8 507.6-444.9c2.9-22 4.4-44.4 4.4-67.1C1024 229.2 794.8 0 512 0z m333.7 889.7c-45.1 39.9-96.3 71-152.2 92.6-57.9 22.3-118.9 33.7-181.5 33.7s-123.7-11.3-181.5-33.7c-55.9-21.6-107.1-52.8-152.2-92.6C91.3 812.8 33.7 708.6 14.8 595c137 82.5 312.7 127.8 497.2 127.8s360.3-45.3 497.2-127.9c-18.9 113.7-76.5 217.9-163.5 294.8z" fill="#E60012"/>
  <path d="M492 310.7c2.2 1.9 3.6 2.9 4.7 4.1 18.9 18.8 37.8 37.6 56.6 56.5 10.8 10.8 21.8 10.9 32.7-0.1 24.7-24.7 49.4-49.4 74.1-74 13.7-13.6 27.3-27.3 40.9-41 3.9-3.9 7.3-8.1 6.9-14.1-0.5-6.2-3.6-10.9-9.2-13.2-5.5-2.2-11.2-2.1-15.8 2.4-11.2 10.9-22.3 21.8-33.3 32.9-11.1 11.2-21.9 22.6-32.8 33.9-0.7-0.4-1.4-0.8-2.1-1.3 0-7.7-0.4-15.5 0.1-23.2 1.3-23.8-16.9-37.2-36.7-36.7-38.4 0.9-76.8 0.1-115.2 0.3-10.1 0.1-19.5 0.2-27.1-8.8-4.8-5.6-13.4-4.5-18.9 0.5-5.2 4.7-7 12.6-2.8 18.3 7.7 10.4 16 19.3 31.2 19 41.7-0.6 83.3-0.2 125-0.2 10.1 0 13.3 3.1 13.4 13.2 0.1 12.8-0.5 25.6 0.2 38.4 0.5 8.8-2.1 15.1-8.6 21.1-4.7 4.3-7.2 4.2-11.4-0.2-13.2-13.8-26.8-27.2-40.3-40.7-8.4-8.3-16.9-8.2-25-0.1-18.6 18.6-37.1 37.1-55.6 55.7-7 7-7.5 16.3-1.4 22.7 5.9 6.2 15.6 6.2 22.6-0.7 11.5-11.2 22.7-22.7 34.2-33.9 2.7-2.7 3.2-5.3 1.9-8.8-2.8-6.5-5.3-13.6-8.3-22zM245.8 312.5c-34.1 0.1-68.2 0-102.2 0.1-10.1 0-16.5 5.7-16.7 14.3-0.2 8.6 6.8 15 16.8 15.1 7.6 0.1 15.2 0 22.8 0.1 7.8 0 8.1 0.4 5.2 7.6-6.7 16.9-13.4 33.9-20.1 50.8-8.7 22 5.4 44.8 28.6 45 45.4 0.4 90.7 0.4 136.1 0 21.7-0.2 37-17.8 33.7-38.8-2-13.2-9.3-24.7-15.9-36.1-3.9-6.7-13.2-7.6-19.8-3.7-6.5 3.8-9.2 11-6.5 18.6 2 5.5 4.6 10.8 7 16.1 3.8 8.7 0.5 14.1-8.8 14.1H196.6c-11.3 0-15.1-5.3-11.1-15.8 6.2-16.4 13.3-32.5 19.1-49.1 2.5-7 5.9-8.9 13.1-8.9 43 0.4 85.9 0.1 128.9 0.2 6.1 0 11.7-1 15.3-6.7 3.1-5 3.2-10.3 0.4-15.5-3.2-5.9-8.6-7.4-14.8-7.4H245.8zM833.2 351.2v54.7c-0.2 7.7-3.5 11.1-11.1 11.4-3.7 0.1-7.4-0.1-11.1 0.2-8.2 0.5-14.6 7.1-14.5 14.7 0.1 7.7 6.4 14.1 14.6 14.6 5 0.3 10 0.1 15 0.1 26-0.1 38.3-12.3 38.3-38.3V304.5c0-13.2 0-13.1 13.4-13.3 1.7 0 3.5 0 5.2-0.2 8.5-0.7 14.2-6.8 14-14.9-0.2-7.5-6.2-13.6-14.3-14.1-4.1-0.3-8.3-0.3-12.4-0.1-4.4 0.3-6.4-1.1-6.1-5.9 0.3-4.3 0.2-8.7 0-13-0.3-10.3-6.7-17.3-15.6-17.3-8.9 0-15.3 7.1-15.5 17.3-0.1 4.1-0.3 8.3 0.1 12.4 0.5 5.3-1.8 6.6-6.8 6.6-15.4-0.3-30.8-0.1-46.2-0.1-14.1 0-28.2-0.1-42.3 0.1-7.6 0.1-13.8 6.2-14.4 13.3-0.6 7 4.4 13.9 11.5 15.3 2.5 0.5 5.2 0.5 7.8 0.5 27.6 0 55.1 0.2 82.7-0.1 6.5-0.1 8 2.1 7.9 8.2-0.4 17.3-0.2 34.6-0.2 52zM245.6 237.3h-85.3c-1.7 0-3.5-0.1-5.2 0.1-7.8 0.6-13.5 6.3-14 13.8-0.5 7.8 4.1 13.8 12 15.4 2.5 0.5 5.2 0.6 7.7 0.6h170c3 0 6.1-0.1 9-1.1 6.9-2.4 10.9-8.3 10.2-15.5-0.7-7-5.9-12.3-13.2-13.1-2.1-0.2-4.3-0.2-6.5-0.2h-84.7z" fill="#FFFFFF"/>
  <path d="M397.7 362.4c0 22.1-0.1 44.2 0 66.4 0 10.7 6.3 17.9 15.5 17.9 9 0 15.5-7.4 15.5-18 0.1-44.5 0.1-88.9 0-133.4 0-10.9-6.4-17.9-15.6-17.7-9.6 0.2-15.4 6.7-15.4 17.9v66.9zM703 354.2v-75.4c0-1.9 0.8-4.5-1-5.4-2.4-1.2-3.7 1.5-5.2 2.9-7.1 7-14.1 14.1-21.2 21.1-2.1 2.1-3.3 4.3-3.3 7.4 0.1 42.3 0 84.5 0.2 126.8 0 5.5 2.4 10 7.5 12.8 11.2 6.2 23-1.2 23.1-14.7 0-25.2-0.1-50.3-0.1-75.5zM612.9 360.4c-5.2 5-10.2 10.6-15.9 15.4-9.5 7.9-15.9 16.9-13.3 30 0.1 0.6 0 1.3-0.1 1.9-0.7 5.7-3.5 9.2-9.6 9.4-3.9 0.1-7.8 0-11.7 0.2-9 0.4-15.1 6.3-15.1 14.6-0.1 8.2 6 14.4 15 14.8 7.4 0.3 14.8 0.4 22.1-0.1 17-1.1 29.7-13.8 30.2-30.8 0.5-17.3 0.2-34.7 0.2-52-0.1-1.1 0.2-2.3-1.8-3.4zM291.5 588.3c15.5 0.3 29.1-7.7 33-21.4 5.4-19.2 9.2-38.8 13.8-58.2 0.5-2.1 0.4-3.7-2.3-4.4-9.1-2.4-13.8 0.2-15.8 9.3-0.2 1.1-0.4 2.1-0.7 3.2-3.5 15.4-6.9 30.9-10.7 46.2-1.8 7.5-9.6 11.9-16.5 10.2-6.1-1.5-7.3-5.4-5.1-14.9 3.7-15.8 7.3-31.7 10.9-47.5 0.5-2 1.7-4.3-0.7-6-5.1-3.7-15.3 0.4-16.7 6.6-3.6 16.3-7.2 32.6-10.9 48.8-4.1 17.8 3.6 27.8 21.7 28.1zM745.7 309.9c-6.1 0-11.7 3.5-13.9 8.5-2.8 6.2-1.8 13 3.2 18 14.2 14.3 28.4 28.6 42.7 42.7 6.7 6.6 16 6.7 22.1 0.6 6.1-6.1 6.6-14.9 0.2-21.6-14.3-14.8-29-29.2-43.6-43.6-3-2.9-6.6-4.9-10.7-4.6zM718.9 569c-1-13.8-2.1-25.6-2.6-37.5-0.2-5.2-2.3-7-7.2-6.5-1.5 0.2-3.1 0.2-4.6 0-5.7-0.7-7.2 1.8-6.3 7.2 2.6 16.5 4.8 33.1 7.4 49.5 0.5 3.3 0.1 5.9-1.6 8.6-3.3 5.3-6.5 10.7-9.6 16.2-0.8 1.5-2.8 3.3 0.3 4.8 5.2 2.4 14.4-0.5 17.4-5.5 7.3-12.1 14.5-24.1 21.8-36.2 7.6-12.6 15.3-25.2 22.8-37.9 1-1.8 3.9-3.9 0.9-6-4-2.9-15.9 0.3-18.2 4.7-6.4 12.2-13 24.6-20.5 38.6zM535.2 523.7c-7.2 0.2-14.2 1.1-21.1 3.4-2.5 0.8-4.2 2-4.8 4.7-3.8 16.7-7.7 33.4-11.4 50.1-0.4 1.6-1 3.4 0.8 4.8 4.5 3.5 14.6-0.3 15.9-5.9 2.9-12.5 5.9-24.9 8.6-37.4 0.8-3.7 2.7-5.6 6.3-6.2 9.2-1.4 13.1 2.5 11.1 11.8-2.3 10.6-4.8 21.2-7.1 31.8-0.4 2-1.6 4.3 0.7 6 4.4 3.2 14.3-0.3 15.6-5.7 2.7-11.2 5.3-22.4 7.8-33.6 3.4-15.5-1.3-21.8-17.1-23.5-1.8-0.2-3.6-0.2-5.3-0.3zM379.5 587.4c2.6-0.4 6.9 1.3 8.1-4.2 2.9-13.1 6.3-26.1 9-39.3 2.2-10.7-2.4-17.1-13.2-19.2-10.5-2.1-20.7-0.7-30.8 2.2-2.7 0.8-4.6 2.1-5.2 5.1-3.7 16.7-7.6 33.4-11.3 50.1-0.3 1.4-0.8 3 0.6 4.3 3.4 3.3 14.6 0.4 15.7-4.1 2.9-12.2 5.7-24.5 8.5-36.7 1.7-7.4 5.6-9.9 13.1-8.3 5.3 1.2 6.9 4.6 5.2 11.8-2.3 9.9-4.8 19.8-7.1 29.7-2.1 8.2-1.7 8.6 7.4 8.6zM420.9 525.1c-2.3-0.1-6.1-0.6-7.3 4.9-3.7 17.3-7.8 34.6-11.7 51.9-0.4 1.8-1 3.8 1.4 5.1 6 3.1 14-0.4 15.5-6.9 3.6-15.6 7.2-31.2 10.7-46.8 1.8-8 1.6-8.2-8.6-8.2zM424.8 516.3c6.7-0.2 11.8-5.2 11.5-10.8-0.3-4.9-3.3-6.7-7.8-6.6-5.8 0.1-11.3 5.4-10.8 10.6 0.4 4.8 3.5 6.7 7.1 6.8zM617.9 504.4c-10.4-2.8-20.6-1.3-30.9 0.9-4.1 0.9-6.2 3-7.1 7.2-4.7 21.4-9.6 42.7-14.6 64-2.6 11.3-2.5 11.5 9.1 11 3.6-0.1 5.6-1.3 6.2-5 0.6-3.6 1.6-7.2 2.4-10.8 1.1-4.8 0.8-10.9 3.7-14.2 3.3-3.8 9.9-1 14.9-2 1.9-0.4 3.9-0.6 5.7-1.1 15.6-4.3 25.3-16.1 25.2-30.7 0.1-10.7-4.4-16.6-14.6-19.3z m-1.9 21.8c-0.6 10-8.2 16.5-20.3 16.5-4.9 0.7-6-1.9-4.5-6.9 1.3-4.4 2.2-8.8 3.3-13.2 1.4-5.9 4.5-7.4 12.5-6.1 6.2 1 9.3 4.2 9 9.7zM674.7 524.8c-8.7-1.9-17.2-0.4-25.8 1.3-5.6 1.1-7.7 4-6.3 9.6 1.6 6.1 5.5 2.1 8.3 1.8 5.3-0.5 10.6-2.7 16-0.5 2.7 1.1 4.2 2.9 3.8 6-0.3 3.3-2.2 4.1-5.2 4.4-5.4 0.5-10.8 1.3-16 2.6-7.6 1.8-14.1 5.5-18.1 12.6-6.7 12-1.6 22.9 11.9 25.3 3.2 0.6 6.5 0.7 8.6 1 7.9-0.1 14.5-1.1 21-3.1 2.3-0.7 4.4-1.6 5-4.4 2.9-13.3 6.3-26.6 8.7-40 1.6-8.9-3.2-14.7-11.9-16.6zM655 576.3c-4-0.4-9.6 0.4-9.9-6.6-0.3-6.6 7.6-11.7 17.6-11.7 2 0 3.8-0.2 3.8 2.9 0.3 10-3.3 15.3-11.5 15.4zM467.5 524.1c-19.6 2.7-34.1 22.3-32.5 43.8 1.1 14.6 10.3 22.2 25 20.6 18.8-2 33.2-20.2 33.2-42 0-15.9-10-24.6-25.7-22.4z m1.3 46.5c-3.4 3.5-7.4 5.6-12.3 3.6-4.8-2-5.5-6.5-5.1-11 0.7-7.8 2.2-15.5 7.6-21.7 3.2-3.7 7.5-5.6 12.3-3.9 4.9 1.7 5.4 6.3 5.4 10.9-0.9 7.9-1.9 15.9-7.9 22.1z" fill="#FFFFFF"/>
  <path d="M479 781c12 0 16.4 5.8 13.7 17.6-9.6 41-19.1 82-28.7 122.9-2.5 10.6-13.1 17.2-23.9 17.2-62.3 0.1 21.5 0.1-40.8 0-11.1 0-16.3-6-13.9-16.7 9.5-41.9 19.2-83.7 29.1-125.5 2.4-10.1 10.3-15.6 21.3-15.7 31.2-0.1 12.1 0.1 43.2 0.2z" fill="#E60012"/>
  <path d="M551.2 781c12 0 16.4 5.8 13.7 17.6-9.6 41-19.1 82-28.7 122.9-2.5 10.6-13.1 17.2-23.9 17.2-62.3 0.1 21.5 0.1-40.8 0-11.1 0-16.3-6-13.9-16.7 9.5-41.9 19.2-83.7 29.1-125.5 2.4-10.1 10.3-15.6 21.3-15.7 31.2-0.1 12.2 0.1 43.2 0.2z" fill="#00508E"/>
  <path d="M624.8 781c12 0 16.4 5.8 13.7 17.6-9.6 41-19.1 82-28.7 122.9-2.5 10.6-13.1 17.2-23.9 17.2-62.3 0.1 21.5 0.1-40.8 0-11.1 0-16.3-6-13.9-16.7 9.5-41.9 19.2-83.7 29.1-125.5 2.4-10.1 10.3-15.6 21.3-15.7 31.2-0.1 12.2 0.1 43.2 0.2z" fill="#00908C"/>
</svg>
