<?xml version="1.0" standalone="no"?><!DOCTYPE svg PUBLIC "-//W3C//DTD SVG 1.1//EN" "http://www.w3.org/Graphics/SVG/1.1/DTD/svg11.dtd"><svg t="1670338965445" class="icon" viewBox="0 0 1024 1024" version="1.1" xmlns="http://www.w3.org/2000/svg" p-id="4294" xmlns:xlink="http://www.w3.org/1999/xlink" width="200" height="200"><path d="M512 955.733333c-121.873067 0-227.549867-43.588267-314.112-129.536C111.854933 739.5328 68.266667 633.873067 68.266667 512c0-121.890133 43.605333-227.293867 129.5872-313.2928C284.416 112.145067 390.109867 68.266667 512 68.266667c121.924267 0 227.328 43.895467 313.326933 130.491733C911.837867 284.672 955.733333 389.802667 955.733333 511.146667c0 122.7264-43.8784 228.437333-130.440533 314.999466C739.293867 912.128 633.890133 955.733333 512 955.733333z m0-853.333333c-112.503467 0-210.090667 40.533333-290.013867 120.439467C142.626133 302.216533 102.4 399.496533 102.4 512c0 112.520533 40.2432 210.1248 119.620267 290.065067C301.8752 881.3568 399.4624 921.6 512 921.6c112.520533 0 209.800533-40.226133 289.160533-119.586133C881.083733 722.090667 921.6 624.520533 921.6 512c0-112.776533-40.4992-209.7664-120.405333-289.109333C721.7664 142.916267 624.4864 102.4 512 102.4z" p-id="4295"></path><path d="M342.186667 716.8a34.133333 34.133333 0 0 1-24.132267-58.2656L464.571733 512l-146.517333-146.5344a34.133333 34.133333 0 1 1 48.264533-48.264533l146.653867 146.653866 145.681067-144.213333a34.133333 34.133333 0 0 1 48.0256 48.520533l-145.220267 143.752534 21.384533 20.974933 122.333867 123.1872a34.133333 34.133333 0 1 1-48.4352 48.093867l-143.6672-144.093867-146.756267 146.756267c-6.656 6.638933-15.394133 9.966933-24.132266 9.966933z" p-id="4296"></path></svg>