<?xml version="1.0" encoding="utf-8" ?>
<svg xmlns="http://www.w3.org/2000/svg" xmlns:xlink="http://www.w3.org/1999/xlink" width="23" height="23" viewBox="0 0 23 23">
	<path transform="matrix(1 0 0 1 1.5 1.5)" d="M-1.06066 -1.06066C-1.64644 -0.474879 -1.64644 0.474879 -1.06066 1.06066L7.87868 10L-1.06066 18.9393C-1.64644 19.5251 -1.64644 20.4749 -1.06066 21.0607C-0.474879 21.6464 0.474879 21.6464 1.06066 21.0607L10 12.1213L18.9393 21.0607C19.5251 21.6464 20.4749 21.6464 21.0607 21.0607C21.6464 20.4749 21.6464 19.5251 21.0607 18.9393L12.1213 10L21.0607 1.06066C21.6464 0.474878 21.6464 -0.474879 21.0607 -1.06066C20.4749 -1.64644 19.5251 -1.64644 18.9393 -1.06066L10 7.87868L1.06066 -1.06066C0.474879 -1.64644 -0.474879 -1.64644 -1.06066 -1.06066Z" fill-rule="evenodd" fill="#FFF" fill-opacity="1"/>
</svg>
