<?xml version="1.0" encoding="UTF-8"?>
<svg width="120px" height="83px" viewBox="0 0 120 83" version="1.1" xmlns="http://www.w3.org/2000/svg" xmlns:xlink="http://www.w3.org/1999/xlink">
    <title>编组 2</title>
    <defs>
        <path d="M32,5 C17.1060465,5 5,17.1060465 5,32 C5,46.8939535 17.1060465,59 32,59 C46.8939535,59 59,46.8939535 59,32 C59,17.1060465 46.8939535,5 32,5 Z" id="path-1"></path>
        <filter x="-14.8%" y="-7.4%" width="129.6%" height="129.6%" filterUnits="objectBoundingBox" id="filter-2">
            <feMorphology radius="1.5" operator="erode" in="SourceAlpha" result="shadowSpreadOuter1"></feMorphology>
            <feOffset dx="0" dy="4" in="shadowSpreadOuter1" result="shadowOffsetOuter1"></feOffset>
            <feGaussianBlur stdDeviation="3.5" in="shadowOffsetOuter1" result="shadowBlurOuter1"></feGaussianBlur>
            <feColorMatrix values="0 0 0 0 1   0 0 0 0 0.518902972   0 0 0 0 0  0 0 0 0.614210009 0" type="matrix" in="shadowBlurOuter1"></feColorMatrix>
        </filter>
    </defs>
    <g id="收银台" stroke="none" stroke-width="1" fill="none" fill-rule="evenodd">
        <g id="1.3.3-扫码支付-生成流水号等系统异常失败--" transform="translate(-130.000000, -153.000000)">
            <g id="反馈:60/操作结果Result:6/提示备份" transform="translate(0.000000, 98.000000)">
                <g id="编组-2" transform="translate(130.000000, 55.000000)">
                    <rect id="矩形" fill="#F0F2F4" x="67" y="0" width="53" height="37" rx="2"></rect>
                    <rect id="矩形" fill="#FFFFFF" x="71" y="9" width="15" height="6"></rect>
                    <rect id="矩形备份" fill="#FFFFFF" x="71" y="21" width="44" height="6"></rect>
                    <g id="closed" transform="translate(29.000000, 16.000000)" fill-rule="nonzero">
                        <path d="M32,0 C14.347907,0 0,14.347907 0,32 C0,49.652093 14.347907,64 32,64 C49.652093,64 64,49.652093 64,32 C64,14.347907 49.652093,0 32,0 Z" id="路径" fill="#FFFFFF"></path>
                        <g id="路径">
                            <use fill="black" fill-opacity="1" filter="url(#filter-2)" xlink:href="#path-1"></use>
                            <use fill="#FF9243" xlink:href="#path-1"></use>
                        </g>
                        <path d="M34.1156352,45.985342 C34.7068404,45.4087948 35,44.7100977 35,43.8843648 C35,43.0684039 34.7019544,42.3599349 34.1156352,41.7687296 C33.52443,41.1775244 32.8159609,40.8794788 32,40.8794788 C31.1840391,40.8794788 30.47557,41.1775244 29.8843648,41.7687296 C29.2931596,42.3599349 29,43.0684039 29,43.8843648 C29,44.7052117 29.2980456,45.4039088 29.8843648,45.985342 C30.3387622,46.4250814 30.8615635,46.6986971 31.4429967,46.8013029 C31.6286645,46.8110749 31.8094463,46.8159609 32,46.8159609 C32.1905537,46.8159609 32.3713355,46.8110749 32.5570033,46.8013029 C33.1433225,46.6986971 33.6612378,46.4299674 34.1156352,45.985342 L34.1156352,45.985342 Z" id="路径" fill="#FFFFFF"></path>
                        <path d="M34.1546338,36.6173171 C35.3848779,27.0115749 36,21.8818069 36,21.228013 C36,20.0162866 35.6286645,19.0130293 34.8794788,18.2052117 C34.1302932,17.4039088 33.1726384,17 32.0065147,17 C30.8403909,17 29.8827362,17.4104235 29.1270358,18.2247557 C28.3778502,19.0325733 28.0065147,20.0358306 28.0065147,21.228013 C28.0065147,21.8818292 28.6409027,27.011926 29.9096788,36.6183032 C30.0505743,37.6849226 30.9599456,38.4820847 32.0358306,38.4820847 C33.1106694,38.4820847 34.0181113,37.6834503 34.1546338,36.6173171 Z" id="路径" fill="#FFFFFF"></path>
                    </g>
                    <circle id="椭圆形" fill="#FF9243" cx="31.5" cy="14.5" r="2.5"></circle>
                    <circle id="椭圆形备份" stroke="#FF9243" cx="15" cy="36" r="3"></circle>
                    <path d="M6.85878336,16.1852886 C7.0450031,16.3715084 7.0450031,16.6741155 6.85878336,16.8603352 C6.67256363,17.0465549 6.37150838,17.0465549 6.18528864,16.8603352 L4.5,15.1734947 L2.81315953,16.8587834 C2.62693979,17.0450031 2.32588454,17.0450031 2.1396648,16.8587834 C1.95344507,16.6725636 1.95344507,16.3715084 2.1396648,16.1852886 L3.82650528,14.4984482 L2.14121664,12.8147114 C1.9549969,12.6284916 1.9549969,12.3258845 2.14121664,12.1396648 C2.32743637,11.9534451 2.63004345,11.9534451 2.81626319,12.1396648 L4.5,13.8249534 L6.18528864,12.1396648 C6.37150838,11.9534451 6.67411546,11.9534451 6.8603352,12.1396648 C7.04655493,12.3258845 7.04655493,12.6284916 6.8603352,12.8147114 L5.17504655,14.5 L6.85878336,16.1852886 Z" id="路径" stroke="#FF9243" stroke-width="0.5" fill="#FF9243" transform="translate(4.500000, 14.500000) rotate(-315.000000) translate(-4.500000, -14.500000) "></path>
                </g>
            </g>
        </g>
    </g>
</svg>
